<?xml version="1.0" encoding="utf-8"?>
<!-- Generator: Adobe Illustrator 27.4.0, SVG Export Plug-In . SVG Version: 6.00 Build 0)  -->
<svg version="1.1" id="Layer_1" xmlns="http://www.w3.org/2000/svg" xmlns:xlink="http://www.w3.org/1999/xlink" x="0px" y="0px"
	 viewBox="0 0 289.4 57.6" style="enable-background:new 0 0 289.4 57.6;" xml:space="preserve">
<style type="text/css">
	.st0{fill:#ED1C24;}
</style>
<g>
	<path class="st0" d="M65.1,55.8V29.2H15.7v26.6H7.4V1.7h8.3v20.3h49.4V1.7h8.3v54.1L65.1,55.8L65.1,55.8z"/>
	<path class="st0" d="M86.8,55.8V1.7h7.6v54.1L86.8,55.8L86.8,55.8z"/>
	<path class="st0" d="M131.3,55.8l-2.9-12.1h-14.5L111,55.8h-7.8l14-55.1h8l14,55.1H131.3z M121.1,12l-5.8,24.8h11.5L121.1,12z"/>
	<path class="st0" d="M157.2,8.6v47.2h-7.6V8.6h-12.1V1.7h31.8v6.9H157.2z"/>
	<path class="st0" d="M209.2,40.7c0,8.6-4.1,16.6-16.2,16.6c-11.5,0-16.1-8.2-16.1-16.6v-39h7.6v38.1c0,5.1,2.4,10.7,8.6,10.7
		c6.7,0,8.5-5.2,8.5-10.6V1.7h7.6L209.2,40.7L209.2,40.7z"/>
	<path class="st0" d="M249,57.3c-10,0-20.7-1.2-29.7-4.9l2-7.1c7.6,3.4,17.8,4.9,27.7,4.9c13.5,0,24.7-2.4,24.7-9.9
		c0-5.9-7.3-7.4-23.7-8.7c-19.2-1.6-30.5-4.4-30.5-15.6c0-10.9,13.4-15.7,33.2-15.7c9.9,0,19.9,1.1,27.5,4.3l-1.9,7.1
		c-7.5-3.2-16.2-4.2-25.6-4.2c-11.2,0-24.6,1.3-24.6,8c0,5.2,6.1,7,22.2,8.3c19,1.5,31.7,3.8,31.7,15.6
		C282.3,53,266.9,57.3,249,57.3z"/>
</g>
</svg>
